<svg version="1.2" xmlns="http://www.w3.org/2000/svg" viewBox="0 0 260 95" width="260" height="95">
	<title>logo-svg</title>
	<style>
		.s0 { fill: #024b00 } 
	</style>
	<path id="Layer" fill-rule="evenodd" class="s0" d="m39.7 49.7c0 3.7-1.5 7.7-4.4 10.6-2.9 2.9-6.7 4.3-10.5 4.3-3.8 0-7.7-1.4-10.6-4.3-2.9-2.9-4.3-6.9-4.3-10.6 0-3.7 1.4-7.6 4.3-10.5l10.6-10.5 10.5 10.5c2.9 2.9 4.4 6.8 4.4 10.5zm-3.8 0.7c0-3.7-1.1-6-3.2-8.1l-7.9-8.2-7.9 8.1c-2.1 2.1-3.3 4.5-3.3 8.2z"/>
	<path id="EXO by ISMA-TECH" class="s0" aria-label="EXO by
ISMA-TECH"  d="m75.3 36h-16.7v-26h15.8v4.3h-10.6v5.8h9.2v4.3h-9.2v7.3h11.5zm22.2 0h-5.5q-0.8-2.1-2-4.7-1.2-2.6-2.4-5.2-1.2 2.4-2.5 5.1-1.2 2.7-2.1 4.8h-5.5q0.4-1.1 1.2-2.7 0.8-1.6 1.8-3.5 1-1.8 2.1-3.7 1.1-2 2.1-3.8l-6.8-12.3h5.6l4.1 8.3 4.3-8.3h5.2l-6.6 12.2q1.1 1.8 2.2 3.7 1.1 2 2 3.9 1 1.8 1.7 3.5 0.7 1.6 1.1 2.7zm6.9-13q0 1.9 0.1 3.6 0.2 1.6 0.6 2.8 0.5 1.2 1.3 2 0.8 0.7 2.1 0.7 1.3 0 2.1-0.7 0.8-0.8 1.3-2 0.4-1.2 0.5-2.9 0.2-1.6 0.2-3.5 0-1.9-0.2-3.5-0.1-1.7-0.5-2.9-0.5-1.2-1.3-2-0.8-0.7-2.1-0.7-1.3 0-2.1 0.7-0.8 0.8-1.3 2-0.4 1.2-0.6 2.9-0.1 1.6-0.1 3.5zm-5.3 0q0-6.7 2.5-10.1 2.5-3.5 6.9-3.5 4.6 0 7 3.5 2.4 3.4 2.4 10.1 0 6.7-2.5 10.2-2.4 3.4-6.9 3.4-4.5 0-7-3.4-2.4-3.5-2.4-10.2zm55.4 3q0-2.8-0.9-4.2-0.9-1.5-2.8-1.5-0.8 0-1.6 0.3-0.8 0.2-1.4 0.5v10.7q0.6 0.1 1.2 0.2 0.7 0 1.1 0 2 0 3.2-1.3 1.2-1.4 1.2-4.7zm5.2 0.1q0 2.4-0.6 4.3-0.6 1.9-1.8 3.3-1.3 1.3-3 2.1-1.8 0.7-4.1 0.7-2 0-4.1-0.3-2.1-0.3-3.5-0.8v-27.6l5.2-0.9v9.8q1.1-0.5 2.1-0.6 1-0.2 2-0.2 1.9 0 3.4 0.7 1.5 0.7 2.4 2.1 1 1.4 1.5 3.2 0.5 1.9 0.5 4.2zm15.8-9.8h5.3q-0.8 2.7-1.5 5.4-0.7 2.7-1.5 5.2-0.8 2.6-1.8 5-0.8 2.4-1.9 4.7-0.8 1.7-1.6 2.9-0.7 1.3-1.7 2.1-0.9 0.7-2.1 1.1-1.1 0.4-2.7 0.4-1.3 0-2.4-0.2-1-0.2-1.8-0.6l1-4.3q0.8 0.4 1.5 0.5 0.6 0.2 1.4 0.2 1.5 0 2.4-1 1-1.1 1.5-2.4-1.8-3.7-3.7-8.5-1.8-4.8-3.3-10.5h5.3q0.4 1.5 0.9 3.3 0.5 1.8 1 3.5 0.6 1.8 1.2 3.5 0.6 1.7 1.2 3.2 0.4-1.5 0.9-3.2 0.5-1.7 0.9-3.4 0.4-1.8 0.8-3.6 0.4-1.7 0.7-3.3zm-100.7 69.7h-16.5v-4.3h5.6v-17.4h-5.6v-4.3h16.5v4.3h-5.7v17.4h5.7zm11.9-3.7q1.3 0 2.2-0.3 0.9-0.3 1.4-0.8 0.5-0.5 0.6-1 0.3-0.7 0.3-1.3 0-0.8-0.5-1.4-0.5-0.7-1.2-1.1-0.7-0.5-1.6-0.9-0.9-0.4-1.7-0.8-1.2-0.4-2.5-0.9-1.2-0.6-2.3-1.4-1-0.9-1.7-2.1-0.6-1.2-0.6-3.1 0-3.6 2.3-5.7 2.4-2.1 6.6-2.1 2.4 0 4.1 0.6 1.8 0.5 3 1.2l-1.5 4q-1-0.6-2.3-1-1.3-0.4-3-0.4-4.1 0-4.1 3 0 0.7 0.4 1.3 0.5 0.5 1.1 1 0.7 0.4 1.5 0.8 0.8 0.3 1.6 0.6 1.2 0.5 2.5 1 1.4 0.6 2.5 1.6 1.1 0.9 1.8 2.3 0.7 1.4 0.7 3.5 0 3.7-2.4 5.7-2.3 2-7.2 2-3.2 0-5.1-0.7-2-0.7-2.9-1.3l1.5-4.2q1.1 0.7 2.7 1.3 1.6 0.6 3.8 0.6zm13.8-22.3h4.3q0.3 0.9 0.7 2.3 0.4 1.4 0.9 3 0.5 1.6 1.1 3.2 0.5 1.7 0.9 3 0.5-1.5 1.1-3.1 0.5-1.7 1-3.2 0.5-1.6 0.9-2.9 0.5-1.4 0.8-2.3h4.3q0.3 3.4 0.5 6.7 0.3 3.2 0.5 6.4 0.2 3.1 0.3 6.4 0.2 3.2 0.2 6.5h-4.7l0.2-20.2-3.2 11h-3.7l-3.1-11 0.2 20.2h-4.7q0.1-3.2 0.2-6.6 0.2-3.4 0.4-6.8 0.1-3.5 0.3-6.6 0.3-3.2 0.6-6zm39.1 26h-5.5l-1.2-6h-7l-1.1 6h-5.4q1.8-7.7 3.7-14 1.9-6.3 3.7-12h5.6q1.8 5.7 3.7 12.2 1.8 6.4 3.5 13.8zm-10.1-20.9q-0.5 1.4-0.8 2.8-0.4 1.3-0.7 2.6-0.3 1.3-0.6 2.6-0.3 1.3-0.5 2.6h5.1q-0.3-1.3-0.5-2.6-0.3-1.3-0.6-2.6-0.3-1.3-0.7-2.6-0.3-1.4-0.7-2.8zm15.2 12.7v-5.1h11.6v5.1zm17.3-17.8h18.9v4.3h-6.9v21.7h-5.2v-21.7h-6.8zm39.2 26h-16.6v-26h15.7v4.3h-10.6v5.8h9.2v4.3h-9.2v7.3h11.5zm14.1 0.6q-5.5 0-8.4-3.5-2.9-3.6-2.9-10.1 0-3.2 0.9-5.7 0.9-2.6 2.5-4.3 1.6-1.7 3.7-2.6 2.2-1 4.7-1 1.4 0 2.5 0.3 1.2 0.2 2 0.5 0.8 0.3 1.4 0.6 0.6 0.4 0.9 0.5l-1.4 4.2q-0.9-0.7-2.3-1.1-1.4-0.5-3.1-0.5-1.3 0-2.4 0.5-1.2 0.4-2.1 1.5-0.9 1-1.5 2.7-0.5 1.7-0.5 4.3 0 4.4 1.5 6.8 1.6 2.4 5 2.4 2.1 0 3.4-0.5 1.3-0.4 2.1-0.9l1.3 4.1q-1.1 0.6-3 1.2-1.8 0.6-4.3 0.6zm22.6-26.6h5.1v26h-5.1v-11.4h-6.9v11.4h-5.2v-26h5.2v10.3h6.9z"/>
</svg>