<svg version="1.2" xmlns="http://www.w3.org/2000/svg" viewBox="0 0 260 93" width="290" height="104">
	<title>logo-svg</title>
	<style>
		.s0 { fill: #ffffff } 
	</style>
	<path id="Layer" fill-rule="evenodd" class="s0" d="m39.7 48.7c0 3.7-1.5 7.7-4.4 10.6-2.9 2.9-6.7 4.3-10.5 4.3-3.8 0-7.7-1.4-10.6-4.3-2.9-2.9-4.3-6.9-4.3-10.6 0-3.7 1.4-7.6 4.3-10.5l10.6-10.5 10.5 10.5c2.9 2.9 4.4 6.8 4.4 10.5zm-3.8 0.7c0-3.7-1.1-6-3.2-8.1l-7.9-8.2-7.9 8.1c-2.1 2.1-3.3 4.5-3.3 8.2 0 0 22.3 0 22.3 0z"/>
	<path id="DOC by SALIM.LINK" class="s0" aria-label="DOC by
SALIM.LINK"  d="m52.6 33v-22.9q0-0.8 0.7-1.4 0.7-0.6 1.9-0.6h5.4q2.8 0 4.9 0.9 2.1 0.9 3.5 2.5 1.4 1.5 2 3.6 0.7 2 0.7 4.4v4.7q0 2.2-0.7 4.2-0.6 2-2 3.4-1.4 1.5-3.5 2.4-2.1 0.8-4.9 0.8h-5.4q-1.2 0-1.9-0.6-0.7-0.6-0.7-1.4zm8-20.4h-3v17.9h3q2.9 0 4.5-1.5 1.7-1.5 1.7-4.4v-5.5q0-3.1-1.7-4.8-1.6-1.7-4.5-1.7zm16.5 11.9v-5.9q0-2.3 0.7-4.3 0.6-2 1.9-3.5 1.3-1.4 3.3-2.3 2-0.8 4.7-0.8 2.8 0 4.8 0.8 2 0.9 3.3 2.3 1.3 1.5 2 3.5 0.6 2 0.6 4.3v5.9q0 2.3-0.6 4.3-0.7 2-2 3.5-1.3 1.4-3.3 2.3-2 0.8-4.8 0.8-2.7 0-4.7-0.8-2-0.9-3.3-2.3-1.3-1.5-1.9-3.5-0.7-2-0.7-4.3zm4.9-5.9v5.9q0 3.5 1.5 5 1.6 1.4 4.2 1.4 2.8 0 4.3-1.4 1.5-1.5 1.5-5v-5.9q0-3.4-1.5-4.9-1.5-1.4-4.3-1.4-2.6 0-4.2 1.4-1.5 1.5-1.5 4.9zm21.8 6.6v-7.3q0-2.1 0.6-3.9 0.6-1.9 1.9-3.3 1.2-1.4 3.1-2.2 1.8-0.8 4.2-0.8 1.7 0 3.1 0.4 1.3 0.4 2.4 1 1 0.6 1.5 1.4 0.6 0.8 0.6 1.7 0 0.8-0.5 1.3-0.5 0.5-1.1 0.5-0.8 0-1.3-0.2-0.5-0.2-1.3-0.7-0.6-0.4-1.4-0.7-0.8-0.3-2-0.3-2 0-3.5 1.4-1.4 1.3-1.4 4.1v7.9q0 2.9 1.4 4.2 1.5 1.3 3.5 1.3 1.2 0 1.9-0.2 0.8-0.2 1.5-0.5 0.4-0.3 0.8-0.5 0.3-0.2 0.5-0.3 0.3-0.1 0.6-0.2 0.3 0 0.7 0 0.8 0 1.2 0.5 0.4 0.5 0.4 1.2 0 0.8-0.6 1.6-0.5 0.8-1.5 1.5-1.1 0.6-2.4 0.9-1.4 0.4-3.1 0.4-2.4 0-4.2-0.8-1.9-0.8-3.1-2.2-1.3-1.4-1.9-3.2-0.6-1.9-0.6-4zm43.5-0.2q0-2.8-0.9-4.2-0.9-1.5-2.7-1.5-0.9 0-1.7 0.2-0.8 0.3-1.4 0.6v10.7q0.6 0.1 1.2 0.2 0.7 0 1.1 0 2.1 0 3.2-1.3 1.2-1.4 1.2-4.7zm5.3 0.1q0 2.4-0.7 4.3-0.6 1.9-1.8 3.2-1.2 1.4-3 2.1-1.8 0.8-4 0.8-2 0-4.1-0.3-2.1-0.3-3.6-0.8v-27.7l5.2-0.8v9.8q1.1-0.5 2.1-0.7 1-0.2 2-0.2 1.9 0 3.4 0.8 1.5 0.7 2.5 2.1 1 1.3 1.5 3.2 0.5 1.9 0.5 4.2zm15.8-9.8h5.3q-0.8 2.7-1.6 5.4-0.7 2.7-1.5 5.2-0.8 2.5-1.7 5-0.9 2.4-2 4.7-0.8 1.7-1.6 2.9-0.7 1.2-1.7 2-0.9 0.8-2.1 1.2-1.1 0.4-2.7 0.4-1.3 0-2.4-0.3-1-0.2-1.7-0.5l0.9-4.3q0.9 0.4 1.5 0.5 0.7 0.1 1.4 0.1 1.5 0 2.5-1 0.9-1 1.4-2.4-1.8-3.7-3.7-8.4-1.8-4.8-3.3-10.5h5.4q0.3 1.5 0.8 3.3 0.5 1.7 1 3.5 0.6 1.8 1.2 3.5 0.6 1.7 1.2 3.1 0.5-1.4 0.9-3.1 0.5-1.7 0.9-3.5 0.4-1.7 0.8-3.5 0.4-1.7 0.8-3.3zm-107.7 70.1q-0.7 0-1.6-0.1-0.9-0.2-1.9-0.5-1-0.3-2-0.7-1-0.4-1.8-0.9-0.8-0.6-1.3-1.4-0.5-0.7-0.5-1.5 0-2 2.2-2 0.7 0 1.2 0.4 0.6 0.3 1.1 0.8 0.7 0.6 2 1.2 1.3 0.5 2.7 0.5 1.7 0 2.7-0.7 1-0.8 1-2.4 0-1.3-1-2.2-0.9-0.9-2.2-1.5-1.4-0.7-3-1.3-1.6-0.7-3-1.6-1.3-0.9-2.3-2.3-0.9-1.5-0.9-3.6 0-1.8 0.6-3.2 0.6-1.5 1.7-2.5 1.1-1.1 2.7-1.6 1.6-0.6 3.6-0.6 2.1 0 3.7 0.5 1.6 0.5 2.6 1.3 1.1 0.8 1.7 1.6 0.5 0.8 0.5 1.3 0 1-0.5 1.6-0.5 0.6-1.6 0.6-0.7 0-1.2-0.3-0.5-0.3-1-0.6-0.5-0.5-1.5-1-1.1-0.5-2.9-0.5-1.5 0-2.4 0.8-1 0.8-1 2.3 0 1.4 0.9 2.2 0.9 0.8 2.3 1.4 1.3 0.6 2.9 1.3 1.6 0.6 3 1.6 1.4 0.9 2.2 2.3 1 1.4 1 3.7 0 3.5-2.3 5.6-2.4 2-6.4 2zm25.7-25.9l8 23.2q0.3 0.7-0.2 1.5-0.5 0.8-1.6 1.1-1.1 0.2-1.9-0.2-0.8-0.4-1-1.2l-1.5-4.8h-9.2l-1.5 4.9q-0.3 0.7-1.1 1.1-0.8 0.4-1.8 0.2-1.2-0.3-1.7-1.1-0.4-0.8-0.2-1.5l8.2-23.2q0.2-0.8 0.9-1.3 0.8-0.5 1.8-0.5 1.1 0 1.8 0.5 0.8 0.5 1 1.3zm-2.8 5l-3.3 10.5h6.6zm15.5 18.4v-23.3q0-0.8 0.6-1.4 0.7-0.6 1.9-0.6 1 0 1.7 0.6 0.7 0.6 0.7 1.4v20.9h8.9q1.2 0 1.8 0.6 0.6 0.6 0.6 1.6 0 1-0.6 1.6-0.6 0.6-1.8 0.6h-11.6q-1-0.1-1.6-0.7-0.6-0.5-0.6-1.3zm19.8 0.4v-23.7q0-0.8 0.7-1.4 0.7-0.6 1.9-0.6 1 0 1.7 0.6 0.7 0.6 0.7 1.4v23.7q0 0.8-0.7 1.4-0.7 0.6-1.7 0.6-1.2 0-1.9-0.6-0.7-0.6-0.7-1.4zm23.6-6q-1 0-1.7-0.5-0.7-0.6-1.1-1.2l-4.6-9.8v17.6q0 0.7-0.7 1.3-0.6 0.6-1.7 0.6-1.2 0-1.9-0.6-0.6-0.6-0.6-1.3v-23.8q0-0.8 0.6-1.4 0.7-0.6 1.9-0.6h0.7q1.1 0 1.8 0.4 0.7 0.4 1.1 1.1l6.2 12.4 6.1-12.4q0.5-0.7 1.2-1.1 0.7-0.5 1.8-0.4h0.6q1.2 0 1.9 0.6 0.7 0.6 0.7 1.4v23.8q0 0.7-0.7 1.3-0.7 0.6-1.9 0.6-1 0-1.7-0.6-0.6-0.6-0.6-1.3v-17.6l-4.7 9.8q-0.3 0.6-1 1.2-0.7 0.5-1.7 0.5zm17.7 6v-1.1q0-0.8 0.7-1.4 0.8-0.6 2.1-0.6 1.1 0 1.8 0.6 0.8 0.6 0.8 1.4v1.1q0 0.8-0.8 1.4-0.7 0.6-1.8 0.6-1.3 0-2.1-0.6-0.7-0.6-0.7-1.4zm11.1-0.4v-23.3q0-0.8 0.6-1.4 0.7-0.6 1.9-0.6 1 0 1.7 0.6 0.7 0.6 0.7 1.4v20.9h8.9q1.2 0 1.8 0.6 0.6 0.6 0.6 1.6 0 1-0.6 1.6-0.6 0.6-1.8 0.6h-11.6q-1-0.1-1.6-0.7-0.6-0.5-0.6-1.3zm19.8 0.4v-23.7q0-0.8 0.7-1.4 0.7-0.6 1.9-0.6 1 0 1.7 0.6 0.7 0.6 0.7 1.4v23.7q0 0.8-0.7 1.4-0.7 0.6-1.7 0.6-1.2 0-1.9-0.6-0.7-0.6-0.7-1.4zm11.3 0.1v-23.8q0-0.8 0.6-1.4 0.7-0.6 1.9-0.6 0.9 0 1.5 0.5 0.7 0.5 0.8 1.1l11.3 16.5v-16.1q0-0.8 0.7-1.4 0.7-0.6 1.8-0.6 1.1 0 1.7 0.6 0.7 0.6 0.7 1.4v23.8q0 0.7-0.7 1.3-0.6 0.6-1.7 0.6-0.9 0-1.5-0.3-0.6-0.4-0.8-1l-0.2-0.2-11.2-16.3v15.9q0 0.7-0.7 1.3-0.6 0.6-1.7 0.6-1.2 0-1.9-0.6-0.6-0.6-0.6-1.3zm27.3 0v-23.8q0-0.8 0.7-1.4 0.6-0.6 1.8-0.6 1.1 0 1.7 0.6 0.7 0.6 0.7 1.4v10.1h1.3l8.1-11.4q0.2-0.3 0.6-0.4 0.4-0.2 0.9-0.2 0.5-0.1 1 0 0.5 0.2 0.9 0.5 0.8 0.7 0.7 1.7 0 1-0.6 1.5l-7.5 10.1 8.5 10.2q0.6 0.5 0.4 1.5-0.1 0.8-0.9 1.5-0.8 0.7-1.8 0.6-0.9 0-1.4-0.6l-8.6-10.7h-1.6v9.4q0 0.7-0.7 1.3-0.6 0.6-1.7 0.6-1.2 0-1.8-0.6-0.7-0.6-0.7-1.3z"/>
</svg>